<svg xmlns="http://www.w3.org/2000/svg" width="24.027" height="29.283" viewBox="0 0 24.027 29.283">
  <path id="Icon_material-notifications-none" data-name="Icon material-notifications-none" d="M18.014,33.033a3.012,3.012,0,0,0,3-3H15.01A3.012,3.012,0,0,0,18.014,33.033Zm9.01-9.01V16.515c0-4.61-2.448-8.47-6.758-9.491V6a2.253,2.253,0,1,0-4.505,0V7.024C11.466,8.045,9,11.889,9,16.515v7.509l-3,3v1.5H30.027v-1.5Zm-3,1.5H12.007v-9.01c0-3.724,2.268-6.758,6.007-6.758s6.007,3.033,6.007,6.758Z" transform="translate(-6 -3.75)" fill="#de1285"/>
</svg>
