<svg xmlns="http://www.w3.org/2000/svg" width="27.852" height="28.634" viewBox="0 0 27.852 28.634">
  <path id="Icon_material-settings" data-name="Icon material-settings" d="M27.973,18.72a11.158,11.158,0,0,0,.1-1.4,11.158,11.158,0,0,0-.1-1.4l3.021-2.362a.722.722,0,0,0,.172-.916L28.3,7.682a.72.72,0,0,0-.873-.315L23.864,8.8a10.46,10.46,0,0,0-2.42-1.4L20.9,3.6a.7.7,0,0,0-.7-.6H14.472a.7.7,0,0,0-.7.6L13.226,7.4a11,11,0,0,0-2.42,1.4L7.242,7.367a.7.7,0,0,0-.873.315L3.505,12.635a.706.706,0,0,0,.172.916L6.7,15.914a11.354,11.354,0,0,0-.1,1.4,11.354,11.354,0,0,0,.1,1.4L3.677,21.082A.722.722,0,0,0,3.505,22l2.863,4.954a.72.72,0,0,0,.873.315l3.565-1.432a10.46,10.46,0,0,0,2.42,1.4l.544,3.794a.7.7,0,0,0,.7.6H20.2a.7.7,0,0,0,.7-.6l.544-3.794a11,11,0,0,0,2.42-1.4l3.565,1.432a.7.7,0,0,0,.873-.315L31.165,22a.722.722,0,0,0-.172-.916L27.973,18.72ZM17.335,22.328a5.011,5.011,0,1,1,5.011-5.011A5.016,5.016,0,0,1,17.335,22.328Z" transform="translate(-3.406 -3)" fill="#de1285"/>
</svg>
