<svg xmlns="http://www.w3.org/2000/svg" width="23.961" height="22.118" viewBox="0 0 23.961 22.118">
  <path id="Icon_ionic-md-heart-empty" data-name="Icon ionic-md-heart-empty" d="M20.747,4.5a7.087,7.087,0,0,0-5.391,2.529A7.087,7.087,0,0,0,9.964,4.5a6.514,6.514,0,0,0-6.589,6.63c0,4.579,4.072,8.254,10.241,13.922l1.739,1.567,1.739-1.567c6.169-5.668,10.241-9.342,10.241-13.922A6.514,6.514,0,0,0,20.747,4.5ZM16.093,23.467l-.242.225-.5.449-.5-.449-.242-.225A73.211,73.211,0,0,1,7.551,16.44c-1.613-2-2.327-3.634-2.327-5.311A4.791,4.791,0,0,1,6.589,7.714,4.688,4.688,0,0,1,9.964,6.343a5.283,5.283,0,0,1,3.98,1.872l1.411,1.676,1.411-1.676a5.263,5.263,0,0,1,3.98-1.872,4.711,4.711,0,0,1,3.381,1.371,4.8,4.8,0,0,1,1.365,3.416c0,1.67-.72,3.312-2.327,5.311A73.358,73.358,0,0,1,16.093,23.467Z" transform="translate(-3.375 -4.5)" fill="#fff"/>
</svg>
