<svg xmlns="http://www.w3.org/2000/svg" width="20.5" height="18.516" viewBox="0 0 20.5 18.516">
  <path id="Icon_metro-shuffle" data-name="Icon metro-shuffle" d="M18.442,17.385h-2.1l-3.306-3.306,3.306-3.306h2.1v3.306l4.629-4.629L18.442,4.82V8.127H15.8a1.323,1.323,0,0,0-.935.387l-3.694,3.694L7.474,8.514a1.323,1.323,0,0,0-.935-.387H2.571v2.645h3.42L9.3,14.078,5.991,17.385H2.571V20.03H6.538a1.322,1.322,0,0,0,.935-.387l3.694-3.694,3.694,3.694a1.322,1.322,0,0,0,.935.387h2.645v3.306l4.629-4.629-4.629-4.629v3.306Z" transform="translate(-2.571 -4.82)" fill="#de1285"/>
</svg>
