<svg xmlns="http://www.w3.org/2000/svg" width="26.696" height="26.697" viewBox="0 0 26.696 26.697">
  <path id="Icon_awesome-music" data-name="Icon awesome-music" d="M26.7,1.669A1.667,1.667,0,0,0,24.527.078L7.842,5.005A1.668,1.668,0,0,0,6.674,6.6V20.226a7.213,7.213,0,0,0-1.669-.2C2.241,20.022,0,21.516,0,23.359S2.241,26.7,5.006,26.7s5.006-1.494,5.006-3.337V11.174L23.359,7.263v9.627a7.213,7.213,0,0,0-1.669-.2c-2.765,0-5.006,1.494-5.006,3.337s2.241,3.337,5.006,3.337S26.7,21.865,26.7,20.022V1.669Z" transform="translate(0 0.001)" fill="#100f15"/>
</svg>
